<svg width="707" height="462" viewBox="0 0 707 462" fill="none" xmlns="http://www.w3.org/2000/svg">
<g clip-path="url(#clip0_27_520)">
<path opacity="0.1" d="M707 305.444C707.038 328.922 701.454 351.96 690.858 372.042C690.858 396.601 680.883 418.862 664.704 435.086C660.654 439.148 656.294 442.783 651.676 445.946C651.491 446.081 651.299 446.209 651.107 446.337C650.761 446.571 650.415 446.805 650.063 447.046L649.735 447.266C634.421 457.063 617.16 462.151 599.627 462.035H134.213C102.119 462.035 73.067 449.21 52.0176 428.481C30.9683 407.753 17.9963 379.065 17.9963 347.426C6.20937 326.592 -0.0434274 302.272 -1.96613e-05 277.43C-1.96613e-05 207.101 48.9709 150.087 109.387 150.087C111.526 150.087 113.645 150.172 115.753 150.306C153.661 76.1038 239.169 24.3606 338.507 24.3606C399.579 24.3606 455.403 43.9044 498.163 76.196C514.361 65.6856 532.656 60.174 551.262 60.1992C611.666 60.1992 660.649 117.213 660.649 187.543C660.64 191.992 660.434 196.439 660.031 200.865C674.592 212.696 686.46 228.374 694.634 246.575C702.809 264.776 707.05 284.967 707 305.444Z" fill="#E20074"/>
<path opacity="0.1" d="M255.237 345.659C389.033 345.659 497.496 342.324 497.496 338.211C497.496 334.097 389.033 330.762 255.237 330.762C121.441 330.762 12.978 334.097 12.978 338.211C12.978 342.324 121.441 345.659 255.237 345.659Z" fill="#6C63FF"/>
<g opacity="0.7">
<path d="M165.008 283.233H87.7571V332.181H165.008V283.233Z" fill="#65617D"/>
<path opacity="0.1" d="M138.434 291.745H114.949V297.421H138.434V291.745Z" fill="black"/>
<path opacity="0.1" d="M135.498 292.455H117.885V296.711H135.498V292.455Z" fill="black"/>
<path d="M243.495 283.233H166.244V332.181H243.495V283.233Z" fill="#65617D"/>
<path opacity="0.1" d="M216.921 291.745H193.436V297.421H216.921V291.745Z" fill="black"/>
<path opacity="0.1" d="M213.985 292.455H196.372V296.711H213.985V292.455Z" fill="black"/>
<path d="M165.008 232.866H87.7571V281.814H165.008V232.866Z" fill="#65617D"/>
<path opacity="0.1" d="M138.434 241.378H114.949V247.054H138.434V241.378Z" fill="black"/>
<path opacity="0.1" d="M135.498 242.088H117.885V246.344H135.498V242.088Z" fill="black"/>
<path d="M243.495 232.866H166.244V281.814H243.495V232.866Z" fill="#65617D"/>
<path opacity="0.1" d="M216.921 241.378H193.436V247.054H216.921V241.378Z" fill="black"/>
<path opacity="0.1" d="M213.985 242.088H196.372V246.344H213.985V242.088Z" fill="black"/>
<path d="M165.008 181.789H87.7571V230.737H165.008V181.789Z" fill="#65617D"/>
<path opacity="0.1" d="M138.434 190.302H114.949V195.977H138.434V190.302Z" fill="black"/>
<path opacity="0.1" d="M135.498 191.011H117.885V195.268H135.498V191.011Z" fill="black"/>
<path d="M243.495 181.789H166.244V230.737H243.495V181.789Z" fill="#65617D"/>
<path opacity="0.1" d="M216.921 190.302H193.436V195.977H216.921V190.302Z" fill="black"/>
<path opacity="0.1" d="M213.985 191.011H196.372V195.268H213.985V191.011Z" fill="black"/>
<path d="M243.495 130.713H166.244V179.661H243.495V130.713Z" fill="#65617D"/>
<path opacity="0.1" d="M216.921 139.226H193.436V144.901H216.921V139.226Z" fill="black"/>
<path opacity="0.1" d="M213.985 139.935H196.372V144.191H213.985V139.935Z" fill="black"/>
</g>
<g opacity="0.7">
<path d="M321.982 282.523H244.731V331.472H321.982V282.523Z" fill="#65617D"/>
<path opacity="0.1" d="M295.407 291.036H271.923V296.711H295.407V291.036Z" fill="black"/>
<path opacity="0.1" d="M292.472 291.745H274.859V296.002H292.472V291.745Z" fill="black"/>
<path d="M400.468 282.523H323.218V331.472H400.468V282.523Z" fill="#65617D"/>
<path opacity="0.1" d="M373.894 291.036H350.41V296.711H373.894V291.036Z" fill="black"/>
<path opacity="0.1" d="M370.959 291.745H353.345V296.002H370.959V291.745Z" fill="black"/>
<path d="M321.982 232.156H244.731V281.105H321.982V232.156Z" fill="#65617D"/>
<path opacity="0.1" d="M295.407 240.669H271.923V246.344H295.407V240.669Z" fill="black"/>
<path opacity="0.1" d="M292.472 241.379H274.859V245.635H292.472V241.379Z" fill="black"/>
<path d="M400.468 232.156H323.218V281.105H400.468V232.156Z" fill="#65617D"/>
<path opacity="0.1" d="M373.894 240.669H350.41V246.344H373.894V240.669Z" fill="black"/>
<path opacity="0.1" d="M370.959 241.379H353.345V245.635H370.959V241.379Z" fill="black"/>
<path d="M321.982 181.08H244.731V230.028H321.982V181.08Z" fill="#65617D"/>
<path opacity="0.1" d="M295.407 189.593H271.923V195.268H295.407V189.593Z" fill="black"/>
<path opacity="0.1" d="M292.472 190.302H274.859V194.559H292.472V190.302Z" fill="black"/>
<path d="M400.468 181.08H323.218V230.028H400.468V181.08Z" fill="#65617D"/>
<path opacity="0.1" d="M373.894 189.593H350.41V195.268H373.894V189.593Z" fill="black"/>
<path opacity="0.1" d="M370.959 190.302H353.345V194.559H370.959V190.302Z" fill="black"/>
<path d="M400.468 130.004H323.218V178.952H400.468V130.004Z" fill="#65617D"/>
<path opacity="0.1" d="M373.894 138.516H350.41V144.192H373.894V138.516Z" fill="black"/>
<path opacity="0.1" d="M370.959 139.226H353.345V143.482H370.959V139.226Z" fill="black"/>
</g>
<path opacity="0.1" d="M542.789 0.0780175C542.789 0.0780175 490.759 -3.52571 496.878 38.3285C496.878 38.3285 495.642 45.7275 501.5 49.083C501.5 49.083 501.593 45.9829 506.84 47.0399C508.708 47.3953 510.606 47.5001 512.495 47.352C515.047 47.1497 517.472 45.9993 519.404 44.0746C519.404 44.0746 534.032 37.1368 539.718 9.69739C539.718 9.69739 543.926 3.71011 543.76 2.17073L534.978 6.47675C534.978 6.47675 537.981 13.748 535.596 19.7921C535.596 19.7921 535.312 6.73923 533.624 7.02299C533.284 7.08683 529.063 9.54134 529.063 9.54134C529.063 9.54134 534.224 22.204 530.33 31.4119C530.33 31.4119 531.807 15.8053 527.45 10.4565L521.27 14.5993C521.27 14.5993 527.302 27.6805 523.211 38.3569C523.211 38.3569 524.262 21.9841 519.966 15.6066L514.367 20.6221C514.367 20.6221 520.034 33.5189 516.58 42.3721C516.58 42.3721 516.129 23.3107 513.156 21.8706C513.156 21.8706 508.255 26.8364 507.507 28.8652C507.507 28.8652 511.388 38.2292 508.978 43.1666C508.978 43.1666 507.501 30.4685 506.29 30.3975C506.29 30.3975 501.408 38.8109 500.901 44.5854C500.901 44.5854 501.111 36.0017 505.109 29.5959C505.109 29.5959 500.388 30.5252 497.632 34.0438C497.632 34.0438 498.392 28.092 506.315 27.5741C506.315 27.5741 510.35 21.1896 511.426 20.7994C511.426 20.7994 503.552 20.0475 498.775 22.4736C498.775 22.4736 502.977 16.8623 512.872 19.4161L518.403 14.2304C518.403 14.2304 508.033 12.6059 503.632 14.4007C503.632 14.4007 508.694 9.43492 519.892 13.0599L525.924 8.95963C525.924 8.95963 517.08 6.7747 511.815 7.54084C511.815 7.54084 517.377 4.10028 527.691 7.8317L532.018 5.61129C532.018 5.61129 525.541 4.14994 523.644 3.91584C521.746 3.68174 521.647 3.08585 521.647 3.08585C525.751 2.30044 529.963 2.83828 533.816 4.63942C533.816 4.63942 542.95 0.737754 542.789 0.0780175Z" fill="#E20074"/>
<path opacity="0.1" d="M478.616 10.726C478.616 10.726 455.131 9.09437 457.881 28.0139C457.881 28.0139 457.331 31.3552 459.964 32.8733C459.964 32.8733 460.007 31.4545 462.381 31.944C463.223 32.1068 464.08 32.1544 464.933 32.0858C466.086 31.9959 467.182 31.4751 468.054 30.6032C468.054 30.6032 474.666 27.4748 477.237 15.0746C477.237 15.0746 479.135 12.3647 479.061 11.6695L475.093 13.6132C475.093 13.6132 476.453 16.9048 475.383 19.636C475.383 19.636 475.254 13.7338 474.493 13.8757C474.339 13.8757 472.429 15.0107 472.429 15.0107C472.429 15.0107 474.765 20.7355 473.004 24.8997C473.004 24.8997 473.672 17.8483 471.7 15.4293L468.907 17.3021C468.907 17.3021 471.638 23.2113 469.784 28.0352C469.784 28.0352 470.26 20.6362 468.32 17.7561L465.792 20.019C465.792 20.019 468.35 25.8503 466.793 29.8512C466.793 29.8512 466.589 21.2321 465.242 20.5866C465.242 20.5866 463.029 22.8282 462.69 23.7505C462.69 23.7505 464.445 28.0068 463.357 30.2059C463.357 30.2059 462.69 24.4669 462.121 24.4457C462.121 24.4457 459.921 28.248 459.686 30.8302C459.796 28.4203 460.452 26.0852 461.589 24.0555C460.316 24.3323 459.141 25.0301 458.209 26.0631C458.209 26.0631 458.555 23.3816 462.133 23.1404C462.133 23.1404 463.987 20.2602 464.445 20.0829C464.445 20.0829 460.885 19.7424 458.728 20.8419C458.728 20.8419 460.625 18.3023 465.1 19.4586L467.572 17.1176C467.572 17.1176 462.887 16.4082 460.897 17.1957C460.897 17.1957 463.184 14.954 468.245 16.5856L470.965 14.7199C470.965 14.7199 466.972 13.7267 464.587 14.0885C464.587 14.0885 467.102 12.5278 471.762 14.2162L473.709 13.216C473.709 13.216 470.779 12.5491 469.92 12.4498C469.061 12.3505 469.018 12.0738 469.018 12.0738C470.873 11.7196 472.778 11.9652 474.518 12.7832C474.518 12.7832 478.69 11.0239 478.616 10.726Z" fill="#E20074"/>
<path d="M138.551 457.389C152.275 457.389 163.401 455.229 163.401 452.565C163.401 449.901 152.275 447.741 138.551 447.741C124.827 447.741 113.701 449.901 113.701 452.565C113.701 455.229 124.827 457.389 138.551 457.389Z" fill="#E20074"/>
<path d="M148.828 444.677C149.963 443.616 150.789 442.183 151.195 440.569C151.504 438.945 150.899 437.022 149.539 436.391C148.019 435.724 146.393 436.937 145.164 438.157C143.934 439.377 142.518 440.775 140.912 440.512C141.74 439.649 142.359 438.554 142.71 437.335C143.061 436.116 143.131 434.813 142.914 433.553C142.844 433.031 142.651 432.541 142.358 432.134C141.511 431.099 139.985 431.539 138.971 432.354C135.757 434.951 134.861 439.966 134.843 444.471C134.521 442.846 134.793 441.151 134.787 439.505C134.781 437.859 134.379 435.958 133.149 435.086C132.391 434.617 131.538 434.387 130.677 434.419C129.238 434.355 127.625 434.525 126.642 435.738C125.406 437.242 125.733 439.768 126.796 441.413C127.859 443.059 129.485 444.116 130.98 445.258C132.177 446.077 133.197 447.195 133.965 448.529C134.058 448.715 134.132 448.912 134.188 449.117H143.248C145.274 447.933 147.151 446.439 148.828 444.677Z" fill="#E20074"/>
<path d="M443.334 242.62C443.283 242.083 443.115 241.568 442.847 241.125C442.578 240.681 442.216 240.322 441.795 240.08C441.44 239.907 441.059 239.817 440.673 239.816C440.287 239.815 439.906 239.904 439.551 240.076C439.195 240.248 438.874 240.5 438.605 240.818C438.337 241.136 438.127 241.512 437.988 241.925L424.262 275.075L421.172 405.603H426.116L427.97 275.366L443.074 244.677C443.347 244.04 443.438 243.32 443.334 242.62Z" fill="#3F3D56"/>
<path opacity="0.1" d="M664.704 435.086C660.654 439.148 656.294 442.783 651.676 445.946C651.604 446.063 651.523 446.172 651.435 446.273C650.945 446.75 650.362 447.086 649.736 447.252C634.421 457.049 617.16 462.137 599.628 462.021H259.835C220.9 457.424 197.144 451.331 197.144 444.641C197.144 439.456 211.408 434.625 235.967 430.581C238.514 430.155 241.169 429.744 243.934 429.347C245.635 429.101 247.376 428.864 249.156 428.637L252.178 428.233C254.419 427.94 256.72 427.654 259.081 427.375H259.273L261.745 427.091C263.833 426.842 265.966 426.608 268.141 426.381L269.723 426.218L273.759 425.807C276.379 425.537 279.057 425.279 281.793 425.034C284.063 424.83 286.37 424.627 288.714 424.423C312.483 422.402 339.885 420.877 369.704 419.89L378.22 419.557L381.088 419.486L387.144 419.33L389.573 419.273L392.126 419.217L393.942 419.181L402.471 419.025L406.853 418.954H407.749C418.111 418.812 428.666 418.739 439.415 418.734C460.662 418.734 481.267 419.025 500.901 419.578C512.173 419.89 523.102 420.288 533.686 420.77H533.785C564.302 422.146 591.618 424.175 614.225 426.694L614.639 426.743C620.442 427.389 625.936 428.077 631.09 428.786C635.942 429.453 640.496 430.155 644.723 430.872C646.188 431.12 647.61 431.376 648.994 431.624L649.346 431.695C655.205 432.78 660.347 433.887 664.704 435.086Z" fill="#6C63FF"/>
<path d="M651.676 445.946C651.604 446.063 651.523 446.172 651.435 446.273C650.945 446.75 650.362 447.086 649.736 447.252C648.486 447.654 647.2 447.892 645.904 447.961H645.515C644.774 447.989 644.033 447.961 643.296 447.876C642.758 447.787 642.214 447.746 641.671 447.755H641.596C640.806 447.883 640.03 448.104 639.279 448.415C637.607 448.941 635.883 449.223 634.149 449.252H633.531C631.591 449.252 629.626 449.174 627.679 449.188C627.364 449.188 627.061 449.188 626.733 449.188C623.396 449.288 620.077 449.898 616.74 449.962H615.671C612.402 449.869 609.058 449.068 606.457 446.798C605.932 446.399 605.506 445.852 605.221 445.209C604.999 444.53 604.925 443.799 605.004 443.08C605.066 441.796 605.282 440.399 606.123 439.533C606.651 439.068 607.257 438.733 607.903 438.547C609.034 438.129 610.171 437.725 611.302 437.32C612.433 436.916 613.724 436.483 614.942 436.072L615.177 435.987L615.856 435.752L616.295 435.582C616.827 435.386 617.337 435.119 617.815 434.788C618.446 434.33 618.98 433.717 619.379 432.993C619.447 432.865 619.521 432.73 619.583 432.596C619.645 432.461 619.583 432.376 619.54 432.262C619.435 431.375 619.354 430.467 619.218 429.602C617.479 429.139 615.893 428.109 614.651 426.637C613.584 425.423 612.686 424.028 611.988 422.501C610.449 419.181 609.658 415.471 608.508 411.945C606.747 406.582 604.182 401.631 601.599 396.721C599.238 392.196 596.865 387.655 594.183 383.378C592.397 380.54 590.475 377.837 588.707 374.993C583.707 367.055 580.12 358.063 578.152 348.532C577.851 346.704 577.423 344.906 576.873 343.155C575.81 340.176 573.863 337.75 572.355 335.026C570.734 332.089 569.624 328.82 569.086 325.399C568.777 323.455 568.258 321.355 566.57 321.143L566.391 321.547C562.893 329.35 559.303 337.296 554.031 343.666C553.188 344.602 552.417 345.621 551.726 346.709C551.172 347.765 550.676 348.859 550.243 349.987C549.408 352.011 548.301 353.871 546.961 355.499C546.562 355.961 546.128 356.382 545.663 356.754C545.046 357.269 544.359 357.665 543.63 357.925C543.343 358.025 543.049 358.101 542.752 358.152C542.752 358.237 542.783 358.315 542.789 358.4C542.796 358.485 542.827 358.584 542.839 358.677C543.748 364.352 543.358 370.202 541.708 375.652C541.665 375.823 541.615 375.986 541.56 376.156C541.304 376.951 541.026 377.731 540.725 378.497C539.971 380.377 539.075 382.179 538.371 384.087C538.253 384.414 538.136 384.74 538.031 385.066C535.559 392.664 536.177 401.148 535.855 409.313C535.827 411.099 535.643 412.876 535.305 414.62C534.885 416.585 534.212 418.613 533.841 420.642C533.503 422.163 533.475 423.754 533.76 425.289L533.612 425.353C532.951 425.636 532.277 425.892 531.604 426.133V426.239C531.845 427.828 532.079 429.417 532.32 430.999C532.524 432.361 532.765 433.837 533.593 434.802C533.819 435.015 534.026 435.252 534.212 435.511C534.7 436.391 534.267 437.554 534.36 438.597C534.496 440.073 535.682 441.328 535.497 442.797C535.413 443.235 535.238 443.644 534.986 443.988C534.734 444.331 534.413 444.599 534.051 444.769C533.747 444.927 533.427 445.044 533.099 445.116L532.895 445.166C532.524 445.244 532.154 445.287 531.783 445.329C527.179 445.854 522.513 446.379 517.952 445.485C517.049 445.308 516.153 445.074 515.239 444.989C514.083 444.93 512.925 444.984 511.778 445.152C503.317 446.071 494.808 446.261 486.322 445.719C484.116 445.577 481.582 445.166 480.414 443.002C479.444 441.208 479.796 438.888 480.284 436.838C480.424 436.084 480.677 435.364 481.032 434.71C481.072 434.639 481.117 434.572 481.168 434.511C482.305 432.886 484.443 432.787 486.285 432.851L492.304 433.057C492.897 433.112 493.494 433.059 494.072 432.901C495.048 432.574 495.79 431.68 496.705 431.177C497.854 430.545 499.3 430.467 500.128 429.389L500.233 429.233C500.38 429.005 500.516 428.768 500.641 428.524C500.641 428.474 500.697 428.424 500.728 428.375C500.75 428.331 500.775 428.288 500.802 428.247C501.562 427.098 502.891 426.715 503.972 425.984C504.136 425.874 504.291 425.749 504.436 425.608L504.56 425.48C503.395 424.527 502.38 423.354 501.556 422.011C501.238 421.619 501.004 421.148 500.87 420.635C500.794 420.25 500.82 419.847 500.944 419.479C500.971 419.388 501.004 419.301 501.043 419.216L501.074 419.145C501.494 418.195 502.359 417.337 502.835 416.365C502.853 416.334 502.868 416.3 502.879 416.265C503.534 414.847 503.663 412.647 502.693 411.505C503.188 402.163 505.425 393.061 505.919 383.69C506.117 379.98 506.037 376.255 506.185 372.531C506.333 368.807 506.679 365.196 507.044 361.543C507.86 353.193 509.837 345.014 509.559 336.629C509.535 335.847 509.564 335.064 509.646 334.288C509.643 334.231 509.643 334.174 509.646 334.117C509.844 332.399 510.311 330.736 511.024 329.208C511.92 327.482 512.934 325.84 514.058 324.299C517.859 318.624 522.426 312.949 523.78 305.969C524.478 302.365 526.023 299.066 527.562 295.824C528.47 293.895 529.416 291.916 530.868 290.497C531.655 289.872 532.385 289.159 533.05 288.369C534.063 286.865 534.1 284.786 534.7 282.999C535.009 282.069 535.485 281.218 535.719 280.26C535.719 280.161 535.763 280.069 535.781 279.969C535.918 279.003 535.99 278.026 535.998 277.047C535.998 276.763 536.035 276.486 536.066 276.21C536.427 273.405 537.136 270.674 538.173 268.101C538.303 267.775 538.426 267.442 538.55 267.115C535.699 265.206 533.183 262.701 531.134 259.73C530.439 258.769 529.836 257.725 529.335 256.616C528.062 253.715 527.772 250.409 527.172 247.231C525.739 239.655 522.457 232.518 522 224.771C521.864 222.409 522 219.969 521.283 217.734C521.085 217.13 520.852 216.542 520.584 215.975C520.473 215.734 520.368 215.493 520.257 215.266L520.133 214.996L519.818 214.287L519.311 214.741C506.668 226.105 493.394 236.512 479.574 245.897L478.387 246.706C477.769 247.048 477.231 247.554 476.817 248.181C476.768 248.274 476.725 248.366 476.681 248.458C476.397 249.132 476.323 249.877 476.063 250.586C475.507 252.211 474.079 253.247 472.621 253.729C469.982 254.508 467.184 254.094 464.803 252.573C464.5 252.395 464.185 252.211 463.913 252.005C463.19 252.465 462.428 252.838 461.639 253.119C459.167 253.942 456.577 253.906 454.019 253.899C451.46 253.892 448.846 253.899 446.424 254.864C444.804 255.495 443.235 256.538 441.554 256.637C441.36 256.652 441.166 256.652 440.973 256.637C440.014 256.511 439.082 256.197 438.216 255.708L437.71 255.446C437.447 255.303 437.191 255.144 436.943 254.97C436.673 254.779 436.422 254.553 436.196 254.296C435.868 253.92 435.63 253.453 435.503 252.942C435.42 252.572 435.42 252.183 435.503 251.814C435.527 251.648 435.602 251.497 435.714 251.388C435.824 251.313 435.95 251.276 436.078 251.282C436.787 251.273 437.495 251.342 438.192 251.487C438.601 251.552 439.015 251.578 439.428 251.565H439.65C440.015 251.52 440.367 251.39 440.686 251.183C441.005 250.975 441.283 250.695 441.504 250.359C441.572 250.255 441.626 250.141 441.665 250.019C441.74 249.819 441.778 249.604 441.776 249.387C441.78 249.333 441.78 249.279 441.776 249.224C441.517 249.09 441.257 248.955 441.01 248.792C440.88 248.714 440.756 248.628 440.633 248.543L440.559 248.487C440.337 248.313 440.13 248.116 439.941 247.898C439.821 247.761 439.715 247.609 439.626 247.444C439.461 247.187 439.338 246.899 439.261 246.592C438.752 246.47 438.225 246.487 437.722 246.642C437.048 246.855 436.369 247.309 435.701 247.465C435.364 247.562 435.01 247.545 434.681 247.415C433.717 247.018 433.377 245.67 433.174 244.514C433.136 244.294 433.093 244.067 433.062 243.84C432.991 243.404 432.991 242.957 433.062 242.521C433.361 241.529 433.931 240.676 434.688 240.087L436.715 238.136L436.863 237.995C436.863 237.803 436.795 237.612 436.77 237.42C436.699 236.982 436.699 236.532 436.77 236.093C437.069 235.104 437.639 234.253 438.396 233.667L442.882 229.333C443.723 228.524 444.638 227.673 445.731 227.588C447.357 227.46 448.655 229.007 449.872 230.248C451.405 231.809 453.265 233.086 455.311 233.242C456.285 233.293 457.259 233.139 458.184 232.788L458.71 232.589C458.598 232.327 458.487 232.064 458.382 231.802C458.203 231.369 458.024 230.929 457.851 230.489C460.483 230.298 462.875 228.638 464.871 226.651C466.867 224.665 468.579 222.317 470.594 220.366C472.769 218.238 475.266 216.656 477.472 214.606C482.602 209.832 486.007 202.816 491.495 198.609C493.398 197.141 495.598 195.97 496.896 193.785C497.298 193.076 497.601 192.366 498.015 191.657C499.331 189.529 501.587 188.55 503.447 187.074C505.307 185.599 506.927 183.435 508.441 181.357C509.516 179.874 510.597 178.391 511.623 176.866C512.569 174.844 513.366 172.73 514.355 170.737C515.194 169.053 516.173 167.466 517.278 165.998C517.532 165.431 517.791 164.863 518.069 164.31C518.347 163.756 518.551 163.381 518.811 162.891C518.99 162.572 519.175 162.267 519.367 161.955C518.805 160.813 518.267 159.826 518.014 159.394L517.89 159.202C517.345 158.536 516.763 157.91 516.147 157.329C515.501 157.217 514.861 157.061 514.231 156.861C510.417 155.661 507.053 153.055 504.656 149.444C502.259 145.833 500.964 141.417 500.969 136.878C500.966 136.856 500.966 136.835 500.969 136.814C500.971 133.563 501.645 130.358 502.934 127.464C503.194 126.882 503.472 126.322 503.775 125.776C503.492 125.673 503.217 125.545 502.953 125.392C502.502 125.137 502.108 124.766 501.803 124.307C501.551 123.898 501.388 123.427 501.327 122.931C501.223 121.762 501.376 120.581 501.772 119.497C501.941 118.976 502.133 118.464 502.347 117.965C502.364 117.936 502.378 117.905 502.39 117.873C505.153 111.488 511.042 107.565 516.926 107.289C523.273 106.998 529.453 110.417 534.459 115.312C535.952 116.719 537.289 118.332 538.439 120.115C541.053 124.286 542.233 129.62 542.579 134.905C542.709 136.54 542.684 138.186 542.505 139.814C542.44 140.395 542.336 140.969 542.196 141.531C542.116 141.865 542.011 142.198 541.9 142.531C541.788 142.865 541.72 143.014 541.621 143.241V143.276C541.529 143.503 541.424 143.716 541.319 143.929L541.263 144.021L541.183 144.17C541.232 144.305 541.288 144.447 541.343 144.582C541.399 144.716 541.448 144.844 541.51 144.972H541.584C542.82 145.085 543.964 145.284 545.224 145.397C545.817 145.43 546.406 145.534 546.98 145.71C548.216 146.135 549.149 147.171 550.187 148.008C552.758 150.094 555.922 151.065 558.45 153.222C562.158 156.4 564.012 161.65 566.261 166.353C569.228 172.652 574.061 178.015 576.193 184.755C577.157 187.814 578.125 190.87 579.097 193.92C580.995 199.9 582.892 205.909 585.469 211.548C589.053 219.394 593.905 226.446 596.779 234.689C597.064 235.515 597.599 236.195 598.287 236.604C602.202 242.951 605.684 249.637 608.7 256.602C610.288 260.284 611.79 264.107 612.253 268.186C612.615 271.818 612.353 275.496 611.481 279.012C610.988 281.1 610.383 283.152 609.67 285.155C609.392 285.856 609.185 286.592 609.052 287.347C609.052 287.425 609.052 287.503 609.052 287.581C608.929 288.943 609.38 290.291 609.503 291.653C609.607 292.75 609.499 293.859 609.188 294.902C609.139 295.065 609.083 295.229 609.027 295.392C608.644 296.221 608.32 297.085 608.057 297.974C608.035 298.081 608.018 298.19 608.008 298.3C607.804 299.84 608.335 301.393 608.626 302.933C609.713 308.494 609.516 314.283 609.244 319.958C609.102 322.796 611.098 325.073 612.766 327.165C615.856 331.088 618.273 335.678 620.603 340.247C621.874 342.566 622.944 345.023 623.798 347.582C624.682 350.505 625.034 353.597 625.522 356.627C627.098 365.991 632.246 374.262 633.643 383.647C634.29 387.945 635.941 391.961 638.42 395.267C639.167 396.153 639.855 397.101 640.478 398.105C640.908 398.905 641.251 399.762 641.498 400.659C642.105 402.745 642.392 404.936 642.344 407.135C642.246 408.188 642.298 409.252 642.499 410.285C643.08 412.463 645.156 413.662 646.015 415.712C646.874 417.762 646.281 420.387 646.633 422.714C646.91 424.59 647.792 426.277 649.105 427.438C648.611 427.935 648.092 428.389 647.56 428.857C648.052 429.296 648.483 429.817 648.839 430.404C649.083 430.796 649.29 431.217 649.457 431.659C650.273 433.837 650.298 436.426 650.965 438.753C651.25 439.718 651.651 440.739 651.404 441.718C651.298 441.999 651.228 442.295 651.194 442.598C651.194 443.237 651.775 443.655 651.997 444.237C652.078 444.529 652.091 444.841 652.035 445.141C651.979 445.441 651.855 445.718 651.676 445.946Z" fill="url(#paint0_linear_27_520)"/>
<path d="M520.881 169.283C524.663 168.112 528.031 165.665 531.331 163.246L542.832 154.839C539.712 154.556 537.017 152.002 535.416 148.909C533.816 145.816 533.154 142.219 532.611 138.687C527.667 140.9 523.384 144.653 519.391 148.618C517.809 150.186 514.447 152.555 513.959 155.003C513.471 157.45 516.586 159.436 517.791 161.075C518.205 161.621 522.105 168.893 520.881 169.283Z" fill="#FBBEBE"/>
<path opacity="0.1" d="M520.881 169.283C524.663 168.112 528.031 165.665 531.331 163.246L542.832 154.839C539.712 154.556 537.017 152.002 535.416 148.909C533.816 145.816 533.154 142.219 532.611 138.687C527.667 140.9 523.384 144.653 519.391 148.618C517.809 150.186 514.447 152.555 513.959 155.003C513.471 157.45 516.586 159.436 517.791 161.075C518.205 161.621 522.105 168.893 520.881 169.283Z" fill="black"/>
<path d="M458.036 238.718C456.009 239.91 453.852 241.13 451.584 240.96C449.544 240.811 447.684 239.541 446.152 237.987C444.916 236.753 443.642 235.214 442.017 235.341C440.929 235.427 440.015 236.271 439.174 237.072L434.694 241.378C433.94 241.96 433.369 242.806 433.068 243.79C432.98 244.458 433.016 245.14 433.173 245.791C433.377 246.94 433.717 248.281 434.681 248.671C435.645 249.061 436.696 248.224 437.716 247.905C438.339 247.722 438.993 247.736 439.61 247.944C440.226 248.153 440.783 248.548 441.22 249.089C441.584 249.501 441.804 250.051 441.838 250.636C441.838 251.92 440.602 252.764 439.465 252.828C438.328 252.892 437.24 252.466 436.115 252.544C436.047 252.534 435.978 252.54 435.912 252.561C435.846 252.583 435.785 252.619 435.731 252.668C435.678 252.717 435.633 252.777 435.601 252.846C435.568 252.915 435.547 252.991 435.54 253.069C435.471 253.517 435.5 253.978 435.627 254.41C435.753 254.841 435.972 255.229 436.263 255.538C436.851 256.153 437.534 256.635 438.278 256.957C439.143 257.447 440.076 257.759 441.034 257.879C442.932 258.021 444.675 256.815 446.473 256.112C448.896 255.176 451.503 255.148 454.062 255.155C456.621 255.162 459.216 255.204 461.67 254.382C464.123 253.559 466.453 251.736 467.411 249.019C467.524 248.765 467.561 248.476 467.516 248.196C467.421 247.897 467.237 247.646 466.997 247.486C463.548 244.556 462.152 240.995 458.271 238.888L458.036 238.718Z" fill="#FBBEBE"/>
<path opacity="0.1" d="M458.036 238.718C456.009 239.91 453.852 241.13 451.584 240.96C449.544 240.811 447.684 239.541 446.152 237.987C444.916 236.753 443.642 235.214 442.017 235.341C440.929 235.427 440.015 236.271 439.174 237.072L434.694 241.378C433.94 241.96 433.369 242.806 433.068 243.79C432.98 244.458 433.016 245.14 433.173 245.791C433.377 246.94 433.717 248.281 434.681 248.671C435.645 249.061 436.696 248.224 437.716 247.905C438.339 247.722 438.993 247.736 439.61 247.944C440.226 248.153 440.783 248.548 441.22 249.089C441.584 249.501 441.804 250.051 441.838 250.636C441.838 251.92 440.602 252.764 439.465 252.828C438.328 252.892 437.24 252.466 436.115 252.544C436.047 252.534 435.978 252.54 435.912 252.561C435.846 252.583 435.785 252.619 435.731 252.668C435.678 252.717 435.633 252.777 435.601 252.846C435.568 252.915 435.547 252.991 435.54 253.069C435.471 253.517 435.5 253.978 435.627 254.41C435.753 254.841 435.972 255.229 436.263 255.538C436.851 256.153 437.534 256.635 438.278 256.957C439.143 257.447 440.076 257.759 441.034 257.879C442.932 258.021 444.675 256.815 446.473 256.112C448.896 255.176 451.503 255.148 454.062 255.155C456.621 255.162 459.216 255.204 461.67 254.382C464.123 253.559 466.453 251.736 467.411 249.019C467.524 248.765 467.561 248.476 467.516 248.196C467.421 247.897 467.237 247.646 466.997 247.486C463.548 244.556 462.152 240.995 458.271 238.888L458.036 238.718Z" fill="black"/>
<path d="M530.405 163.061C529.446 162.351 528.357 161.903 527.224 161.752C526.09 161.6 524.941 161.75 523.866 162.189C521.713 163.079 519.781 164.557 518.236 166.495C516.694 168.3 515.358 170.324 514.262 172.518C513.212 174.646 512.408 176.873 511.358 178.994C509.504 182.79 507.081 186.138 504.646 189.458C503.132 191.522 501.599 193.615 499.659 195.133C497.718 196.651 495.549 197.58 494.233 199.687C493.819 200.354 493.522 201.106 493.114 201.78C491.822 203.951 489.629 205.114 487.719 206.568C482.243 210.754 478.838 217.72 473.721 222.466C471.515 224.509 469.024 226.112 466.855 228.198C464.834 230.135 463.147 232.454 461.132 234.441C459.117 236.427 456.751 238.066 454.124 238.25C455.879 242.74 457.974 247.146 460.984 250.643C463.994 254.14 468.505 256.375 472.615 255.006C474.073 254.524 475.501 253.502 476.057 251.885C476.232 251.053 476.476 250.243 476.786 249.466C477.199 248.841 477.735 248.338 478.35 247.997C494.848 236.943 510.574 224.437 525.386 210.591C529.36 206.874 533.303 203.546 537.382 199.95C538.844 198.759 540.197 197.399 541.418 195.892C543.119 193.56 544.181 190.703 544.471 187.68C544.762 184.657 544.267 181.603 543.049 178.902C541.955 176.836 540.702 174.886 539.304 173.078C536.761 169.277 533.765 165.906 530.405 163.061Z" fill="#E20074"/>
<path opacity="0.1" d="M530.405 163.061C529.446 162.351 528.357 161.903 527.224 161.752C526.09 161.6 524.941 161.75 523.866 162.189C521.713 163.079 519.781 164.557 518.236 166.495C516.694 168.3 515.358 170.324 514.262 172.518C513.212 174.646 512.408 176.873 511.358 178.994C509.504 182.79 507.081 186.138 504.646 189.458C503.132 191.522 501.599 193.615 499.659 195.133C497.718 196.651 495.549 197.58 494.233 199.687C493.819 200.354 493.522 201.106 493.114 201.78C491.822 203.951 489.629 205.114 487.719 206.568C482.243 210.754 478.838 217.72 473.721 222.466C471.515 224.509 469.024 226.112 466.855 228.198C464.834 230.135 463.147 232.454 461.132 234.441C459.117 236.427 456.751 238.066 454.124 238.25C455.879 242.74 457.974 247.146 460.984 250.643C463.994 254.14 468.505 256.375 472.615 255.006C474.073 254.524 475.501 253.502 476.057 251.885C476.232 251.053 476.476 250.243 476.786 249.466C477.199 248.841 477.735 248.338 478.35 247.997C494.848 236.943 510.574 224.437 525.386 210.591C529.36 206.874 533.303 203.546 537.382 199.95C538.844 198.759 540.197 197.399 541.418 195.892C543.119 193.56 544.181 190.703 544.471 187.68C544.762 184.657 544.267 181.603 543.049 178.902C541.955 176.836 540.702 174.886 539.304 173.078C536.761 169.277 533.765 165.906 530.405 163.061Z" fill="black"/>
<path d="M503.849 426.225C502.767 426.935 501.439 427.332 500.678 428.481C500.431 428.85 500.264 429.283 499.999 429.637C499.177 430.744 497.718 430.794 496.575 431.425C495.66 431.922 494.919 432.844 493.948 433.135C493.368 433.293 492.769 433.346 492.175 433.291L486.168 433.085C484.264 433.021 482.033 433.135 480.927 434.915C480.567 435.568 480.312 436.288 480.173 437.044C479.709 439.08 479.332 441.385 480.303 443.173C481.465 445.301 484.011 445.734 486.205 445.876C494.68 446.414 503.179 446.224 511.63 445.308C512.773 445.14 513.927 445.086 515.078 445.145C515.993 445.23 516.889 445.464 517.791 445.641C522.346 446.528 527.006 446.01 531.604 445.485C532.381 445.442 533.146 445.256 533.872 444.932C534.232 444.763 534.552 444.496 534.803 444.153C535.054 443.811 535.228 443.404 535.312 442.967C535.503 441.506 534.31 440.264 534.181 438.796C534.088 437.76 534.521 436.604 534.026 435.724C533.841 435.465 533.634 435.227 533.408 435.015C532.58 434.029 532.339 432.589 532.135 431.241L531.053 423.955C531.023 423.442 530.84 422.956 530.534 422.579C530.307 422.391 530.045 422.267 529.768 422.217C525.059 420.997 520.232 422.111 515.554 422.792C513.146 423.197 510.711 423.337 508.28 423.21C507.229 423.132 506.821 422.99 506.037 423.778C505.252 424.565 504.831 425.566 503.849 426.225Z" fill="#3F3D56"/>
<path d="M617.568 434.993C616.742 435.524 615.856 435.922 614.935 436.178C612.509 436.991 610.086 437.84 607.668 438.725C607.024 438.908 606.42 439.241 605.894 439.704C605.054 440.555 604.837 441.945 604.775 443.251C604.695 443.97 604.77 444.7 604.992 445.379C605.281 446.015 605.707 446.557 606.228 446.954C608.996 449.359 612.612 450.103 616.085 450.103C619.558 450.103 623.007 449.429 626.48 449.323C630.676 449.195 634.984 449.876 639.019 448.529C639.789 448.202 640.59 447.978 641.405 447.862C641.946 447.852 642.488 447.893 643.024 447.982C645.188 448.228 647.374 447.999 649.463 447.308C650.092 447.148 650.678 446.815 651.169 446.337C651.412 446.095 651.586 445.775 651.668 445.418C651.749 445.061 651.735 444.684 651.627 444.336C651.404 443.761 650.835 443.343 650.829 442.712C650.859 442.408 650.927 442.112 651.033 441.832C651.287 440.86 650.879 439.846 650.594 438.888C649.797 436.15 649.927 433 648.499 430.623C647.072 428.247 644.451 427.268 641.961 426.892C639.937 426.564 637.878 426.631 635.874 427.091C633.618 427.644 631.51 428.8 629.298 429.538C626.73 430.386 624.048 430.677 621.387 430.396C619.62 430.226 620.226 430.545 619.626 432.248C619.201 433.383 618.483 434.342 617.568 434.993Z" fill="#3F3D56"/>
<path d="M518.817 159.443C528.715 159.443 536.739 150.233 536.739 138.871C536.739 127.509 528.715 118.299 518.817 118.299C508.919 118.299 500.895 127.509 500.895 138.871C500.895 150.233 508.919 159.443 518.817 159.443Z" fill="#FBBEBE"/>
<path d="M648.747 427.637C643.185 433.121 635.676 435.518 628.353 435.604C625.262 435.639 622.055 435.256 619.422 433.419C619.237 432.255 619.163 431 618.977 429.836C615.782 429.07 613.304 426.084 611.759 422.778C610.214 419.472 609.429 415.797 608.28 412.293C606.525 406.958 603.954 402.042 601.383 397.161C599.022 392.664 596.655 388.152 593.967 383.903C592.187 381.065 590.259 378.398 588.497 375.568C583.507 367.689 579.926 358.753 577.96 349.277C577.66 347.46 577.232 345.674 576.681 343.936C575.618 340.97 573.671 338.558 572.17 335.856C570.55 332.939 569.44 329.689 568.9 326.286C568.597 324.356 568.078 322.271 566.391 322.072C562.844 329.982 559.228 338.019 553.864 344.454C553.021 345.382 552.25 346.394 551.559 347.476C551.005 348.526 550.51 349.616 550.076 350.739C549.244 352.752 548.138 354.601 546.8 356.215C545.679 357.592 544.201 358.517 542.586 358.854C543.777 365.671 543.068 372.745 540.558 379.072C539.811 380.945 538.915 382.732 538.21 384.627C535.33 392.43 535.998 401.233 535.695 409.697C535.668 411.47 535.486 413.236 535.151 414.967C534.403 418.429 532.858 422.111 533.606 425.573C525.856 428.971 517.247 428.758 509.04 427.325C507.435 427.156 505.877 426.613 504.461 425.729C503.297 424.783 502.281 423.617 501.457 422.281C501.139 421.892 500.905 421.423 500.771 420.912C500.45 419.295 502.007 418.074 502.73 416.656C503.453 415.237 503.583 412.988 502.588 411.825C503.082 402.539 505.32 393.473 505.814 384.158C506.012 380.469 505.932 376.766 506.08 373.07C506.228 369.375 506.574 365.778 506.933 362.146C507.748 353.853 509.726 345.723 509.448 337.388C509.363 334.823 509.877 332.278 510.937 330.017C511.831 328.3 512.843 326.667 513.966 325.137C517.76 319.511 522.321 313.872 523.674 306.927C524.373 303.344 525.918 300.067 527.45 296.846C528.359 294.924 529.305 292.959 530.751 291.547C531.537 290.922 532.268 290.209 532.932 289.419C533.946 287.922 533.983 285.872 534.582 284.084C534.891 283.162 535.367 282.311 535.596 281.36C535.784 280.31 535.878 279.24 535.874 278.168C536.072 274.734 537.221 271.414 538.432 268.272C535.584 266.379 533.069 263.891 531.016 260.937C530.327 259.977 529.726 258.938 529.224 257.837C527.951 254.956 527.661 251.672 527.061 248.515C525.634 240.981 522.352 233.894 521.895 226.198C521.759 223.849 521.895 221.423 521.184 219.203C520.856 218.263 520.472 217.351 520.034 216.472C519.604 215.608 519.275 214.683 519.058 213.719C518.662 211.627 519.206 209.463 519.058 207.335C518.91 205.455 518.211 203.696 517.865 201.858C517.512 199.468 517.452 197.032 517.686 194.622C517.84 191.785 518.378 188.855 518.168 186.053C517.827 181.416 518.342 176.749 519.678 172.356C521.015 167.963 523.143 163.943 525.924 160.557L526.066 160.394C527.247 158.975 528.538 157.72 529.601 156.216C531.047 154.201 532.073 151.832 533.6 149.874C534.267 149.001 535.021 148.221 535.682 147.341C536.289 146.419 536.961 145.555 537.691 144.759C538.06 144.365 538.508 144.081 538.995 143.932C539.482 143.782 539.993 143.771 540.484 143.901C540.608 144.959 540.897 145.982 541.337 146.923C542.623 147.036 543.766 147.242 545.045 147.355C545.638 147.388 546.227 147.492 546.8 147.668C548.005 148.086 548.97 149.086 550.002 149.945C552.572 152.023 555.731 152.988 558.258 155.13C561.966 158.287 563.82 163.501 566.057 168.176C569.018 174.44 573.844 179.768 575.946 186.464L578.844 195.573C580.741 201.518 582.639 207.484 585.209 213.088C588.788 220.891 593.633 227.921 596.507 236.087C596.794 236.905 597.326 237.58 598.008 237.988C601.921 244.287 605.399 250.928 608.409 257.851C609.998 261.511 611.499 265.314 611.957 269.364C612.63 275.089 611.271 280.878 609.38 286.226C609.074 286.992 608.866 287.805 608.762 288.638C608.638 289.993 609.089 291.327 609.213 292.682C609.332 293.947 609.168 295.227 608.737 296.399C608.353 297.223 608.028 298.082 607.767 298.967C607.433 300.599 608.026 302.259 608.348 303.89C609.435 309.417 609.238 315.141 608.966 320.802C608.823 323.64 610.82 325.889 612.482 327.967C615.572 331.862 617.982 336.416 620.312 340.963C621.579 343.27 622.647 345.712 623.501 348.256C624.385 351.157 624.737 354.229 625.225 357.244C626.795 366.544 631.937 374.766 633.334 384.094C633.98 388.368 635.63 392.358 638.105 395.636C638.85 396.523 639.538 397.471 640.163 398.474C640.59 399.27 640.93 400.123 641.176 401.013C641.784 403.085 642.07 405.263 642.023 407.448C641.925 408.493 641.977 409.55 642.177 410.576C642.758 412.74 644.835 413.932 645.688 415.968C646.54 418.004 645.953 420.614 646.306 422.927C646.572 424.794 647.444 426.477 648.747 427.637Z" fill="#E20074"/>
<path d="M461.744 232.334C459.717 233.525 457.56 234.746 455.292 234.575C453.252 234.426 451.392 233.157 449.86 231.603C448.624 230.369 447.35 228.829 445.725 228.957C444.637 229.042 443.723 229.886 442.882 230.688L438.402 234.994C437.648 235.576 437.077 236.422 436.776 237.406C436.688 238.074 436.724 238.755 436.881 239.406C437.085 240.556 437.425 241.896 438.389 242.286C439.353 242.677 440.404 241.84 441.424 241.52C442.047 241.337 442.701 241.351 443.318 241.56C443.934 241.768 444.491 242.164 444.928 242.705C445.292 243.116 445.512 243.666 445.546 244.251C445.546 245.535 444.31 246.38 443.173 246.443C442.036 246.507 440.948 246.082 439.823 246.16C439.755 246.15 439.686 246.156 439.62 246.177C439.554 246.198 439.493 246.234 439.439 246.283C439.386 246.332 439.341 246.393 439.309 246.462C439.276 246.531 439.255 246.606 439.248 246.685C439.179 247.133 439.208 247.594 439.335 248.025C439.461 248.457 439.68 248.845 439.971 249.153C440.559 249.769 441.242 250.25 441.986 250.572C442.851 251.063 443.784 251.375 444.742 251.494C446.64 251.636 448.383 250.43 450.181 249.728C452.604 248.792 455.211 248.763 457.77 248.77C460.329 248.777 462.924 248.82 465.378 247.997C467.831 247.174 470.161 245.351 471.119 242.634C471.232 242.381 471.269 242.091 471.224 241.811C471.129 241.512 470.945 241.261 470.705 241.102C467.256 238.172 465.86 234.611 461.979 232.504L461.744 232.334Z" fill="#FBBEBE"/>
<path d="M510.097 126.23C509.028 126.428 508.119 127.258 507.106 127.719C506.425 128.023 505.697 128.157 504.968 128.113C504.239 128.069 503.527 127.847 502.879 127.464C502.426 127.211 502.03 126.842 501.723 126.386C500.895 125.066 501.185 123.151 501.692 121.604C504.09 114.29 510.492 109.764 516.833 109.474C523.174 109.183 529.342 112.581 534.341 117.44C535.828 118.842 537.163 120.445 538.315 122.214C540.923 126.364 542.103 131.663 542.449 136.913C542.656 139.116 542.529 141.343 542.072 143.496C541.853 144.542 541.452 145.527 540.894 146.391C540.335 147.255 539.63 147.981 538.822 148.526C537.054 149.561 534.935 149.235 533.148 148.242C531.362 147.249 529.83 145.681 528.297 144.184C527.603 143.416 526.781 142.815 525.881 142.418C525.432 142.234 524.946 142.204 524.482 142.329C524.019 142.455 523.596 142.732 523.267 143.127C522.438 144.269 522.649 146.142 521.895 147.384C521.141 148.625 519.571 148.802 518.248 148.802C516.926 148.802 515.585 148.675 514.794 147.469C514.071 146.376 514.176 144.78 514.448 143.404C514.719 142.028 515.183 140.666 515.066 139.254C514.812 136.416 512.649 134.671 511.976 132.061C511.537 130.351 512.501 129.628 512.402 128.081C512.328 126.719 511.055 126.052 510.097 126.23Z" fill="#3F3D56"/>
<path opacity="0.1" d="M566.403 321.895V322.072C562.856 329.982 559.241 338.019 553.876 344.453C553.033 345.382 552.262 346.394 551.571 347.475C551.017 348.526 550.522 349.616 550.088 350.739C549.256 352.752 548.15 354.6 546.812 356.215L542.338 358.783L556.552 273.656L566.403 321.895Z" fill="#E20074"/>
<path opacity="0.1" d="M545.743 193.054C544.523 194.562 543.17 195.922 541.708 197.112C537.629 200.659 533.674 204.008 529.712 207.753C526.519 210.737 523.281 213.66 519.997 216.521C519.566 215.658 519.238 214.732 519.021 213.769C518.625 211.676 519.169 209.512 519.021 207.384C518.872 205.504 518.174 203.745 517.828 201.908C517.475 199.517 517.414 197.082 517.649 194.672C517.803 191.834 518.341 188.904 518.131 186.102C517.789 181.455 518.306 176.776 519.649 172.374C520.992 167.972 523.13 163.945 525.924 160.557L526.066 160.394C526.731 159.95 527.435 159.589 528.167 159.316C529.245 158.882 530.395 158.738 531.529 158.896C532.662 159.053 533.749 159.507 534.706 160.224C538.066 163.068 541.062 166.44 543.605 170.24C545.003 172.049 546.256 173.998 547.35 176.064C548.571 178.763 549.07 181.815 548.784 184.838C548.498 187.861 547.44 190.72 545.743 193.054Z" fill="black"/>
<path d="M534.113 156.677C533.154 155.966 532.065 155.518 530.932 155.367C529.798 155.216 528.649 155.365 527.574 155.804C525.421 156.694 523.489 158.172 521.944 160.11C520.402 161.916 519.066 163.94 517.97 166.133C516.92 168.261 516.116 170.489 515.066 172.61C513.212 176.405 510.789 179.753 508.354 183.073C506.84 185.138 505.307 187.23 503.367 188.749C501.426 190.267 499.257 191.196 497.941 193.303C497.527 193.97 497.23 194.722 496.822 195.396C495.53 197.566 493.337 198.73 491.427 200.184C485.951 204.369 482.546 211.336 477.429 216.081C475.223 218.125 472.732 219.728 470.563 221.813C468.542 223.75 466.855 226.07 464.84 228.056C462.826 230.042 460.459 231.681 457.832 231.865C459.587 236.356 461.682 240.761 464.692 244.259C467.702 247.756 472.213 249.991 476.323 248.621C477.781 248.139 479.209 247.117 479.765 245.5C479.94 244.669 480.184 243.859 480.494 243.081C480.907 242.457 481.443 241.954 482.058 241.613C498.556 230.558 514.282 218.052 529.094 204.206C533.068 200.489 537.011 197.162 541.09 193.565C542.552 192.375 543.905 191.015 545.126 189.508C546.827 187.176 547.889 184.319 548.179 181.296C548.47 178.273 547.975 175.219 546.757 172.518C545.663 170.451 544.41 168.502 543.012 166.693C540.469 162.893 537.473 159.521 534.113 156.677Z" fill="#E20074"/>
<g opacity="0.1">
<path d="M519.484 145.944C518.248 145.944 516.821 145.816 516.03 144.61C515.313 143.517 515.412 141.921 515.684 140.545C515.956 139.169 516.419 137.807 516.302 136.395C516.048 133.558 513.885 131.812 513.212 129.202C512.773 127.492 513.737 126.769 513.638 125.222C513.552 123.881 512.285 123.215 511.327 123.392C510.258 123.591 509.349 124.421 508.336 124.882C507.655 125.185 506.927 125.319 506.198 125.275C505.469 125.231 504.757 125.01 504.108 124.626C503.656 124.374 503.26 124.005 502.953 123.548C502.125 122.229 502.415 120.313 502.922 118.767C502.922 118.71 502.965 118.66 502.984 118.604C502.467 119.553 502.032 120.558 501.686 121.604C501.179 123.151 500.889 125.066 501.717 126.386C502.024 126.842 502.42 127.211 502.872 127.464C503.521 127.847 504.233 128.069 504.962 128.113C505.691 128.157 506.419 128.023 507.1 127.719C508.113 127.258 509.022 126.428 510.091 126.23C511.049 126.052 512.316 126.719 512.402 128.06C512.501 129.606 511.537 130.33 511.976 132.039C512.637 134.65 514.8 136.424 515.066 139.233C515.189 140.651 514.738 142.014 514.448 143.383C514.157 144.752 514.077 146.355 514.794 147.447C515.585 148.653 517 148.767 518.248 148.781C519.497 148.795 521.104 148.696 521.895 147.362C522.236 146.693 522.461 145.953 522.556 145.185C521.715 145.873 520.541 145.958 519.484 145.944Z" fill="black"/>
<path d="M540.058 145.688C538.29 146.724 536.17 146.398 534.384 145.404C532.598 144.411 531.066 142.844 529.533 141.347C528.839 140.578 528.017 139.978 527.117 139.58C526.668 139.397 526.182 139.366 525.718 139.492C525.254 139.618 524.832 139.895 524.502 140.29C524.083 141.002 523.818 141.819 523.73 142.673C524.051 142.456 524.41 142.32 524.781 142.275C525.152 142.23 525.527 142.276 525.881 142.411C526.781 142.808 527.603 143.409 528.297 144.177C529.83 145.674 531.387 147.249 533.148 148.235C534.91 149.221 537.054 149.554 538.822 148.519C540.385 147.469 541.524 145.753 541.992 143.744C541.484 144.553 540.823 145.217 540.058 145.688Z" fill="black"/>
</g>
<path d="M386.254 450.65C396.494 450.65 404.795 441.122 404.795 429.368C404.795 417.614 396.494 408.086 386.254 408.086C376.015 408.086 367.714 417.614 367.714 429.368C367.714 441.122 376.015 450.65 386.254 450.65Z" fill="#3F3D56"/>
<path opacity="0.1" d="M386.254 450.65C396.494 450.65 404.795 441.122 404.795 429.368C404.795 417.614 396.494 408.086 386.254 408.086C376.015 408.086 367.714 417.614 367.714 429.368C367.714 441.122 376.015 450.65 386.254 450.65Z" fill="black"/>
<path d="M386.254 442.846C392.739 442.846 397.996 436.812 397.996 429.368C397.996 421.924 392.739 415.889 386.254 415.889C379.769 415.889 374.512 421.924 374.512 429.368C374.512 436.812 379.769 442.846 386.254 442.846Z" fill="#65617D"/>
<path opacity="0.1" d="M386.254 442.846C392.739 442.846 397.996 436.812 397.996 429.368C397.996 421.924 392.739 415.889 386.254 415.889C379.769 415.889 374.512 421.924 374.512 429.368C374.512 436.812 379.769 442.846 386.254 442.846Z" fill="black"/>
<path d="M372.04 396.026L384.203 427.594C384.384 428.068 384.679 428.472 385.054 428.758C385.428 429.045 385.866 429.203 386.316 429.214C386.767 429.224 387.21 429.087 387.594 428.817C387.979 428.548 388.288 428.158 388.485 427.694L402.941 393.898L372.04 396.026Z" fill="#3F3D56"/>
<path opacity="0.1" d="M372.04 396.026L384.203 427.594C384.384 428.068 384.679 428.472 385.054 428.758C385.428 429.045 385.866 429.203 386.316 429.214C386.767 429.224 387.21 429.087 387.594 428.817C387.979 428.548 388.288 428.158 388.485 427.694L402.941 393.898L372.04 396.026Z" fill="black"/>
<path d="M270.687 450.65C280.927 450.65 289.227 441.122 289.227 429.368C289.227 417.614 280.927 408.086 270.687 408.086C260.448 408.086 252.147 417.614 252.147 429.368C252.147 441.122 260.448 450.65 270.687 450.65Z" fill="#3F3D56"/>
<path opacity="0.1" d="M270.687 450.65C280.927 450.65 289.227 441.122 289.227 429.368C289.227 417.614 280.927 408.086 270.687 408.086C260.448 408.086 252.147 417.614 252.147 429.368C252.147 441.122 260.448 450.65 270.687 450.65Z" fill="black"/>
<path d="M270.687 442.846C277.172 442.846 282.429 436.812 282.429 429.368C282.429 421.924 277.172 415.889 270.687 415.889C264.202 415.889 258.945 421.924 258.945 429.368C258.945 436.812 264.202 442.846 270.687 442.846Z" fill="#65617D"/>
<path opacity="0.1" d="M270.687 442.846C277.172 442.846 282.429 436.812 282.429 429.368C282.429 421.924 277.172 415.889 270.687 415.889C264.202 415.889 258.945 421.924 258.945 429.368C258.945 436.812 264.202 442.846 270.687 442.846Z" fill="black"/>
<path d="M256.473 396.026L268.635 427.594C268.816 428.068 269.112 428.472 269.486 428.758C269.861 429.045 270.299 429.203 270.749 429.214C271.199 429.224 271.643 429.087 272.027 428.817C272.411 428.548 272.72 428.158 272.918 427.694L287.373 393.898L256.473 396.026Z" fill="#3F3D56"/>
<path opacity="0.1" d="M256.473 396.026L268.635 427.594C268.816 428.068 269.112 428.472 269.486 428.758C269.861 429.045 270.299 429.203 270.749 429.214C271.199 429.224 271.643 429.087 272.027 428.817C272.411 428.548 272.72 428.158 272.918 427.694L287.373 393.898L256.473 396.026Z" fill="black"/>
<path d="M446.423 244.039C446.373 243.501 446.205 242.987 445.936 242.543C445.668 242.1 445.306 241.741 444.885 241.499C444.53 241.325 444.148 241.236 443.763 241.235C443.377 241.234 442.996 241.322 442.64 241.494C442.285 241.667 441.964 241.919 441.695 242.237C441.427 242.554 441.217 242.931 441.078 243.343L430.442 273.656L427.352 409.859H432.296L434.15 273.947L446.164 246.096C446.437 245.459 446.528 244.739 446.423 244.039Z" fill="#3F3D56"/>
<path d="M227.736 399.219L244.422 387.159L424.571 385.385L429.206 399.219H227.736Z" fill="#E20074"/>
<path d="M227.736 411.988V399.219L432.469 396.948L432.271 405.603H231.444V411.988H227.736Z" fill="#3F3D56"/>
<path d="M253.692 458.098C263.931 458.098 272.232 448.57 272.232 436.816C272.232 425.063 263.931 415.535 253.692 415.535C243.452 415.535 235.152 425.063 235.152 436.816C235.152 448.57 243.452 458.098 253.692 458.098Z" fill="#3F3D56"/>
<path d="M253.692 450.295C260.177 450.295 265.434 444.26 265.434 436.817C265.434 429.373 260.177 423.338 253.692 423.338C247.207 423.338 241.95 429.373 241.95 436.817C241.95 444.26 247.207 450.295 253.692 450.295Z" fill="#65617D"/>
<path d="M239.478 403.475L251.64 435.043C251.821 435.516 252.116 435.92 252.491 436.207C252.866 436.494 253.304 436.652 253.754 436.662C254.204 436.673 254.648 436.535 255.032 436.266C255.416 435.997 255.725 435.607 255.923 435.142L270.378 401.347L239.478 403.475Z" fill="#3F3D56"/>
<path d="M397.687 458.098C407.927 458.098 416.228 448.57 416.228 436.816C416.228 425.063 407.927 415.535 397.687 415.535C387.448 415.535 379.147 425.063 379.147 436.816C379.147 448.57 387.448 458.098 397.687 458.098Z" fill="#3F3D56"/>
<path d="M397.687 450.295C404.172 450.295 409.43 444.26 409.43 436.817C409.43 429.373 404.172 423.338 397.687 423.338C391.202 423.338 385.945 429.373 385.945 436.817C385.945 444.26 391.202 450.295 397.687 450.295Z" fill="#65617D"/>
<path d="M383.473 403.475L395.636 435.043C395.817 435.516 396.112 435.92 396.487 436.207C396.861 436.494 397.299 436.652 397.75 436.662C398.2 436.673 398.643 436.535 399.027 436.266C399.412 435.997 399.721 435.607 399.919 435.142L414.374 401.347L383.473 403.475Z" fill="#3F3D56"/>
<path d="M328.162 343.531H250.911V392.479H328.162V343.531Z" fill="#65617D"/>
<path opacity="0.1" d="M301.587 352.044H278.103V357.719H301.587V352.044Z" fill="black"/>
<path opacity="0.1" d="M298.652 352.753H281.039V357.01H298.652V352.753Z" fill="black"/>
<path d="M406.649 343.531H329.398V392.479H406.649V343.531Z" fill="#65617D"/>
<path opacity="0.1" d="M380.074 352.044H356.59V357.719H380.074V352.044Z" fill="black"/>
<path opacity="0.1" d="M377.139 352.753H359.526V357.01H377.139V352.753Z" fill="black"/>
<path d="M328.162 293.164H250.911V342.112H328.162V293.164Z" fill="#65617D"/>
<path opacity="0.1" d="M301.587 301.677H278.103V307.352H301.587V301.677Z" fill="black"/>
<path opacity="0.1" d="M298.652 302.386H281.039V306.643H298.652V302.386Z" fill="black"/>
<path d="M406.649 293.164H329.398V342.112H406.649V293.164Z" fill="#65617D"/>
<path opacity="0.1" d="M380.074 301.677H356.59V307.352H380.074V301.677Z" fill="black"/>
<path opacity="0.1" d="M377.139 302.386H359.526V306.643H377.139V302.386Z" fill="black"/>
<path d="M328.162 242.088H250.911V291.036H328.162V242.088Z" fill="#65617D"/>
<path opacity="0.1" d="M301.587 250.601H278.103V256.276H301.587V250.601Z" fill="black"/>
<path opacity="0.1" d="M298.652 251.31H281.039V255.566H298.652V251.31Z" fill="black"/>
<path d="M406.649 242.088H329.398V291.036H406.649V242.088Z" fill="#65617D"/>
<path opacity="0.1" d="M380.074 250.601H356.59V256.276H380.074V250.601Z" fill="black"/>
<path opacity="0.1" d="M377.139 251.31H359.526V255.566H377.139V251.31Z" fill="black"/>
<path d="M406.649 191.011H329.398V239.96H406.649V191.011Z" fill="#65617D"/>
<path opacity="0.1" d="M380.074 199.524H356.59V205.199H380.074V199.524Z" fill="black"/>
<path opacity="0.1" d="M377.139 200.234H359.526V204.49H377.139V200.234Z" fill="black"/>
</g>
<defs>
<linearGradient id="paint0_linear_27_520" x1="542.505" y1="450.04" x2="542.505" y2="107.303" gradientUnits="userSpaceOnUse">
<stop stop-color="#808080" stop-opacity="0.25"/>
<stop offset="0.54" stop-color="#808080" stop-opacity="0.12"/>
<stop offset="1" stop-color="#808080" stop-opacity="0.1"/>
</linearGradient>
<clipPath id="clip0_27_520">
<rect width="707" height="462" fill="white"/>
</clipPath>
</defs>
</svg>
