<svg width="467" height="97" viewBox="0 0 467 97" fill="none" xmlns="http://www.w3.org/2000/svg">
<path d="M0.545455 18.1364V1.90909H77V18.1364H48.5V95H29.0455V18.1364H0.545455ZM128.852 40.7727V56.1364H86.3977V40.7727H128.852ZM166.67 95L140.034 1.90909H161.534L176.943 66.5909H177.716L194.716 1.90909H213.125L230.08 66.7273H230.898L246.307 1.90909H267.807L241.17 95H221.989L204.261 34.1364H203.534L185.852 95H166.67ZM278.341 1.90909H302.614L328.25 64.4545H329.341L354.977 1.90909H379.25V95H360.159V34.4091H359.386L335.295 94.5455H322.295L298.205 34.1818H297.432V95H278.341V1.90909ZM445.966 28.6818C445.602 25.0151 444.042 22.1667 441.284 20.1364C438.527 18.1061 434.784 17.0909 430.057 17.0909C426.845 17.0909 424.133 17.5455 421.92 18.4545C419.708 19.3333 418.011 20.5606 416.83 22.1364C415.678 23.7121 415.102 25.5 415.102 27.5C415.042 29.1667 415.39 30.6212 416.148 31.8636C416.936 33.1061 418.011 34.1818 419.375 35.0909C420.739 35.9697 422.314 36.7424 424.102 37.4091C425.89 38.0455 427.799 38.5909 429.83 39.0455L438.193 41.0455C442.254 41.9545 445.981 43.1667 449.375 44.6818C452.769 46.197 455.708 48.0606 458.193 50.2727C460.678 52.4848 462.602 55.0909 463.966 58.0909C465.36 61.0909 466.072 64.5303 466.102 68.4091C466.072 74.1061 464.617 79.0455 461.739 83.2273C458.89 87.3788 454.769 90.6061 449.375 92.9091C444.011 95.1818 437.542 96.3182 429.966 96.3182C422.451 96.3182 415.905 95.1667 410.33 92.8636C404.784 90.5606 400.451 87.1515 397.33 82.6364C394.239 78.0909 392.617 72.4697 392.466 65.7727H411.511C411.723 68.8939 412.617 71.5 414.193 73.5909C415.799 75.6515 417.936 77.2121 420.602 78.2727C423.299 79.303 426.345 79.8182 429.739 79.8182C433.072 79.8182 435.966 79.3333 438.42 78.3636C440.905 77.3939 442.83 76.0455 444.193 74.3182C445.557 72.5909 446.239 70.6061 446.239 68.3636C446.239 66.2727 445.617 64.5152 444.375 63.0909C443.163 61.6667 441.375 60.4545 439.011 59.4545C436.678 58.4545 433.814 57.5455 430.42 56.7273L420.284 54.1818C412.436 52.2727 406.239 49.2879 401.693 45.2273C397.148 41.1667 394.89 35.697 394.92 28.8182C394.89 23.1818 396.39 18.2576 399.42 14.0455C402.481 9.83333 406.678 6.54545 412.011 4.18182C417.345 1.81818 423.405 0.63636 430.193 0.63636C437.102 0.63636 443.133 1.81818 448.284 4.18182C453.466 6.54545 457.496 9.83333 460.375 14.0455C463.254 18.2576 464.739 23.1364 464.83 28.6818H445.966Z" fill="#E20074"/>
</svg>
